#!OML:ASF G:\JayActor3\Patient Classification 1\Patient 1\Session 5\male.ASF
:FULLY-SPECIFIED
:DEGREES
392
root -7.17983 16.7742 -6.43781 586.865 -94.8088 -591.559
lowerback 0.326762 -1.65808 4.20942
upperback 1.5535 -2.25537 0.536377
thorax 1.27259 -1.08744 -1.82103
lowerneck -7.11615 -0.844165 1.25543
upperneck 0.597279 -1.339 2.53499
head 1.39291 -0.62632 0.533162
rclavicle -2.41166e-014 -6.16232e-015
rhumerus -37.1016 -15.2314 -79.8223
rradius 18.6842
rwrist 14.1406
rhand -17.5323 -4.64074
rfingers 7.12502
rthumb 8.72165 -34.4406
lclavicle -2.41166e-014 -6.16232e-015
lhumerus -32.9382 12.3346 82.5139
lradius 21.5276
lwrist 8.50381
lhand -17.9808 13.3705
lfingers 7.12502
lthumb 8.28884 43.1878
rfemur -18.0409 4.85101 28.4873
rtibia 35.8247
rfoot -15.7807 -15.0531
rtoes 9.9626
lfemur 4.8015 4.42389 -10.8457
ltibia 58.1203
lfoot 11.44 1.96627
ltoes -11.5419
393
root -7.34859 16.7958 -6.45381 585.933 -94.9593 -590.646
lowerback 0.324903 -1.6073 4.24393
upperback 1.60672 -2.19045 0.549495
thorax 1.33176 -1.05304 -1.82776
lowerneck -7.1012 -0.920307 1.20374
upperneck 0.501388 -1.43724 2.63176
head 1.36168 -0.675581 0.568901
rclavicle -2.17421e-015 3.67752e-015
rhumerus -36.769 -14.6966 -80.1846
rradius 19.0209
rwrist 13.5206
rhand -17.6922 -4.68985
rfingers 7.12502
rthumb 8.56737 -34.496
lclavicle -2.17421e-015 3.67752e-015
lhumerus -33.0417 12.7569 82.2441
lradius 20.983
lwrist 7.63569
lhand -17.5458 14.0703
lfingers 7.12502
lthumb 8.70865 43.8706
rfemur -17.2518 4.72541 28.693
rtibia 35.6251
rfoot -16.2597 -14.9935
rtoes 9.92276
lfemur 2.9879 3.92666 -10.998
ltibia 59.8813
lfoot 10.1407 1.95026
ltoes -11.6034
394
root -7.51507 16.8158 -6.46953 584.989 -95.0367 -589.726
lowerback 0.340407 -1.53731 4.21547
upperback 1.6548 -2.09794 0.542942
thorax 1.37901 -1.00569 -1.81872
lowerneck -7.08413 -0.996714 1.15123
upperneck 0.438741 -1.53652 2.73885
head 1.34112 -0.724605 0.608011
rclavicle 1.38311e-014 -8.94531e-015
rhumerus -36.4421 -14.149 -80.5479
rradius 19.3737
rwrist 12.9074
rhand -17.8222 -4.74969
rfingers 7.12502
rthumb 8.44195 -34.561
lclavicle 1.38311e-014 -8.94531e-015
lhumerus -33.1424 13.1575 81.9667
lradius 20.4541
lwrist 6.76288
lhand -17.1341 14.6036
lfingers 7.12502
lthumb 9.1059 44.387
rfemur -16.4788 4.61892 28.8409
rtibia 35.4501
rfoot -16.7464 -14.9141
rtoes 9.91351
lfemur 1.25074 3.46547 -11.222
ltibia 61.3659
lfoot 8.81065 1.9076
ltoes -11.7482
395
root -7.67871 16.8334 -6.48487 584.415 -95.0536 -589.174
lowerback 0.377715 -1.44467 4.1633
upperback 1.69227 -1.97331 0.525448
thorax 1.40536 -0.943014 -1.80667
lowerneck -7.06685 -1.07195 1.09818
upperneck 0.413632 -1.63506 2.85452
head 1.3329 -0.77244 0.649953
rclavicle 6.28346e-015 -6.95746e-016
rhumerus -36.1233 -13.5895 -80.9106
rradius 19.7411
rwrist 12.3143
rhand -17.9218 -4.80984
rfingers 7.12502
rthumb 8.34584 -34.625
lclavicle 6.28346e-015 -6.95746e-016
lhumerus -33.2269 13.5654 81.6731
lradius 19.8714
lwrist 5.97245
lhand -16.8956 14.6669
lfingers 7.12502
lthumb 9.3361 44.4401
rfemur -15.725 4.55017 28.9693
rtibia 35.2891
rfoot -17.2328 -14.8113
rtoes 9.95704
lfemur -0.422612 3.05956 -11.4719
ltibia 62.5973
lfoot 7.42423 1.84834
ltoes -11.9901
396
root -7.84017 16.8486 -6.49947 584.094 -95.0285 -588.884
lowerback 0.441759 -1.33667 4.10096
upperback 1.72264 -1.82636 0.498173
thorax 1.41058 -0.869741 -1.79804
lowerneck -7.06139 -1.14595 1.05316
upperneck 0.441023 -1.7338 2.96542
head 1.34367 -0.819373 0.68903
rclavicle 1.00433e-014 -4.96962e-016
rhumerus -35.81 -13.0121 -81.2764
rradius 20.1171
rwrist 11.73
rhand -18.0098 -4.87097
rfingers 7.12502
rthumb 8.26085 -34.6895
lclavicle 1.00433e-014 -4.96962e-016
lhumerus -33.3365 13.9584 81.3664
lradius 19.3594
lwrist 5.20274
lhand -16.6894 14.7091
lfingers 7.12502
lthumb 9.535 44.4734
rfemur -14.9704 4.48658 29.0854
rtibia 35.1324
rfoot -17.715 -14.6831
rtoes 10.0119
lfemur -2.02078 2.70224 -11.7334
ltibia 63.5885
lfoot 5.95936 1.76908
ltoes -12.3695
397
root -7.99954 16.8607 -6.51289 584.386 -94.9967 -589.217
lowerback 0.526421 -1.21637 4.08151
upperback 1.74911 -1.66231 0.475327
thorax 1.40012 -0.787806 -1.80834
lowerneck -7.07266 -1.21742 1.01028
upperneck 0.519939 -1.83075 3.07189
head 1.37403 -0.864363 0.726375
rclavicle 1.68004e-014 -1.03368e-014
rhumerus -35.4956 -12.4115 -81.6442
rradius 20.501
rwrist 11.1483
rhand -18.1131 -4.90666
rfingers 7.12502
rthumb 8.16117 -34.729
lclavicle 1.68004e-014 -1.03368e-014
lhumerus -33.4774 14.2888 81.0741
lradius 18.9447
lwrist 4.53486
lhand -16.5222 14.7343
lfingers 7.12502
lthumb 9.69632 44.4911
rfemur -14.21 4.42336 29.2383
rtibia 34.9679
rfoot -18.172 -14.5434
rtoes 10.0098
lfemur -3.54879 2.39255 -11.9519
ltibia 64.3603
lfoot 4.40808 1.68884
ltoes -12.8695
398
root -8.15774 16.8701 -6.52484 585.411 -94.9819 -590.296
lowerback 0.622937 -1.08646 4.13288
upperback 1.77566 -1.48549 0.462322
thorax 1.38259 -0.698866 -1.84809
lowerneck -7.10218 -1.28509 0.975135
upperneck 0.646925 -1.92463 3.16816
head 1.42301 -0.906883 0.75925
rclavicle 1.19053e-014 4.96962e-016
rhumerus -35.1762 -11.7954 -82.0104
rradius 20.888
rwrist 10.5742
rhand -18.2208 -4.91474
rfingers 7.12502
rthumb 8.05728 -34.7412
lclavicle 1.19053e-014 4.96962e-016
lhumerus -33.6622 14.5135 80.8207
lradius 18.6651
lwrist 4.04371
lhand -16.3991 14.7654
lfingers 7.12502
lthumb 9.8151 44.5166
rfemur -13.4347 4.35169 29.4497
rtibia 34.7882
rfoot -18.5917 -14.3989
rtoes 9.91338
lfemur -5.00328 2.1219 -12.1054
ltibia 64.9251
lfoot 2.78056 1.64899
ltoes -13.318
399
root -8.31512 16.8766 -6.53507 587.18 -95.0042 -592.131
lowerback 0.724229 -0.95238 4.27111
upperback 1.80462 -1.30354 0.46342
thorax 1.36428 -0.606427 -1.92221
lowerneck -7.15106 -1.34693 0.943416
upperneck 0.8147 -2.01238 3.25506
head 1.48854 -0.945513 0.788723
rclavicle 2.49102e-015 1.35174e-014
rhumerus -34.8468 -11.1525 -82.3792
rradius 21.2749
rwrist 10.0003
rhand -18.3489 -4.88086
rfingers 7.12502
rthumb 7.93355 -34.712
lclavicle 2.49102e-015 1.35174e-014
lhumerus -33.8863 14.6299 80.6135
lradius 18.524
lwrist 3.75454
lhand -16.3098 14.7961
lfingers 7.12502
lthumb 9.9013 44.5432
rfemur -12.6436 4.26186 29.73
rtibia 34.5899
rfoot -18.9453 -14.2695
rtoes 9.61484
lfemur -6.39224 1.88532 -12.181
ltibia 65.3
lfoot 1.12534 1.68339
ltoes -13.7541
400
root -8.47215 16.8801 -6.54344 589.527 -95.0761 -594.552
lowerback 0.821931 -0.819417 4.49631
upperback 1.83895 -1.12378 0.477776
thorax 1.35314 -0.513946 -2.03187
lowerneck -7.21324 -1.40046 0.917297
upperneck 1.01373 -2.0906 3.33288
head 1.56651 -0.978765 0.81465
rclavicle 4.87333e-015 7.55382e-015
rhumerus -34.5047 -10.4881 -82.7478
rradius 21.6644
rwrist 9.44633
rhand -18.4619 -4.85006
rfingers 7.12502
rthumb 7.8245 -34.6853
lclavicle 4.87333e-015 7.55382e-015
lhumerus -34.1364 14.6443 80.4527
lradius 18.4988
lwrist 3.67571
lhand -16.252 14.8095
lfingers 7.12502
lthumb 9.957 44.554
rfemur -11.8366 4.14568 30.072
rtibia 34.3773
rfoot -19.252 -14.1303
rtoes 9.19828
lfemur -7.71851 1.66985 -12.1828
ltibia 65.4984
lfoot -0.512771 1.83274
ltoes -14.0967
401
root -8.62959 16.8806 -6.55015 592.104 -95.1938 -597.217
lowerback 0.910611 -0.692112 4.78427
upperback 1.88036 -0.952337 0.499431
thorax 1.35449 -0.424536 -2.16967
lowerneck -7.27741 -1.44555 0.899497
upperneck 1.22933 -2.15874 3.40047
head 1.65014 -1.00675 0.836282
rclavicle 6.50088e-015 5.76476e-015
rhumerus -34.1536 -9.8131 -83.1117
rradius 22.0592
rwrist 8.92569
rhand -18.5401 -4.83566
rfingers 7.12502
rthumb 7.74908 -34.6737
lclavicle 6.50088e-015 5.76476e-015
lhumerus -34.4182 14.5624 80.3354
lradius 18.5968
lwrist 3.79704
lhand -16.2154 14.8014
lfingers 7.12502
lthumb 9.99235 44.5442
rfemur -11.0152 3.99452 30.4491
rtibia 34.1614
rfoot -19.5235 -13.975
rtoes 8.67491
lfemur -8.97894 1.464 -12.1381
ltibia 65.5339
lfoot -2.10847 2.11471
ltoes -14.3773
402
root -8.78774 16.878 -6.55541 594.61 -95.3436 -599.814
lowerback 0.977585 -0.573194 5.10465
upperback 1.93156 -0.793568 0.523073
thorax 1.37855 -0.340334 -2.32413
lowerneck -7.34739 -1.48121 0.885135
upperneck 1.45428 -2.21514 3.46197
head 1.73789 -1.02869 0.855812
rclavicle -1.4474e-015 -1.37161e-014
rhumerus -33.7844 -9.12135 -83.4727
rradius 22.4592
rwrist 8.43549
rhand -18.5783 -4.85506
rfingers 7.12502
rthumb 7.71214 -34.6944
lclavicle -1.4474e-015 -1.37161e-014
lhumerus -34.7061 14.4105 80.2533
lradius 18.7711
lwrist 4.08219
lhand -16.1885 14.7448
lfingers 7.12502
lthumb 10.0183 44.4863
rfemur -10.1928 3.80205 30.8297
rtibia 33.9558
rfoot -19.795 -13.7774
rtoes 8.17405
lfemur -10.1851 1.26378 -12.0775
ltibia 65.4194
lfoot -3.63691 2.53168
ltoes -14.6634
403
root -8.94531 16.8724 -6.56004 597.096 -95.5216 -602.373
lowerback 1.02458 -0.45973 5.44883
upperback 1.9775 -0.642979 0.549964
thorax 1.40937 -0.25967 -2.4888
lowerneck -7.40598 -1.50861 0.876356
upperneck 1.6767 -2.26094 3.52001
head 1.82283 -1.04548 0.87376
rclavicle 8.9422e-015 -6.36111e-015
rhumerus -33.4074 -8.43196 -83.8208
rradius 22.8658
rwrist 8.00473
rhand -18.5603 -4.91296
rfingers 7.12502
rthumb 7.72955 -34.7517
lclavicle 8.9422e-015 -6.36111e-015
lhumerus -34.98 14.2381 80.1771
lradius 18.9556
lwrist 4.45347
lhand -16.1684 14.621
lfingers 7.12502
lthumb 10.0377 44.3617
rfemur -9.40834 3.60047 31.2182
rtibia 33.7735
rfoot -20.0769 -13.5459
rtoes 7.76039
lfemur -11.3785 1.08293 -11.9925
ltibia 65.1727
lfoot -5.08405 3.06197
ltoes -14.9986
404
root -9.10222 16.8638 -6.5646 599.413 -95.7109 -604.735
lowerback 1.05046 -0.35071 5.78916
upperback 2.01718 -0.499293 0.575771
thorax 1.44678 -0.182205 -2.65255
lowerneck -7.46405 -1.52988 0.871102
upperneck 1.89763 -2.29904 3.57423
head 1.90729 -1.05848 0.890219
rclavicle -1.06226e-015 -1.21259e-014
rhumerus -33.0208 -7.7495 -84.1542
rradius 23.2831
rwrist 7.62635
rhand -18.4773 -5.01077
rfingers 7.12502
rthumb 7.80966 -34.8465
lclavicle -1.06226e-015 -1.21259e-014
lhumerus -35.2618 14.0106 80.1273
lradius 19.2099
lwrist 4.92552
lhand -16.1434 14.4855
lfingers 7.12502
lthumb 10.0618 44.2249
rfemur -8.67525 3.39483 31.5955
rtibia 33.6253
rfoot -20.3756 -13.295
rtoes 7.40352
lfemur -12.5714 0.919764 -11.9044
ltibia 64.8004
lfoot -6.42089 3.68606
ltoes -15.2925
405
root -9.25829 16.8526 -6.56961 601.536 -95.9001 -606.874
lowerback 1.06108 -0.246954 6.10594
upperback 2.04274 -0.362904 0.600464
thorax 1.47921 -0.108851 -2.80423
lowerneck -7.52064 -1.54668 0.863064
upperneck 2.12468 -2.33141 3.62792
head 1.99376 -1.06849 0.907266
rclavicle 3.08737e-015 -3.18055e-015
rhumerus -32.6324 -7.06595 -84.476
rradius 23.7067
rwrist 7.26555
rhand -18.3896 -5.10217
rfingers 7.12502
rthumb 7.89435 -34.9348
lclavicle 3.08737e-015 -3.18055e-015
lhumerus -35.5745 13.6912 80.1212
lradius 19.5655
lwrist 5.5209
lhand -16.114 14.3703
lfingers 7.12502
lthumb 10.0902 44.1084
rfemur -8.00324 3.19972 31.9554
rtibia 33.5163
rfoot -20.6914 -13.0483
rtoes 7.0744
lfemur -13.7737 0.776822 -11.8223
ltibia 64.3048
lfoot -7.65294 4.3815
ltoes -15.6272
406
root -9.41352 16.8392 -6.57519 603.409 -96.0752 -608.729
lowerback 1.05908 -0.148262 6.38378
upperback 2.05492 -0.233313 0.61989
thorax 1.50561 -0.0396102 -2.93947
lowerneck -7.57147 -1.56087 0.852822
upperneck 2.34589 -2.36004 3.68031
head 2.07753 -1.0768 0.924509
rclavicle 2.55003e-015 -5.36719e-015
rhumerus -32.2418 -6.38634 -84.7854
rradius 24.136
rwrist 6.89547
rhand -18.2896 -5.16638
rfingers 7.12502
rthumb 7.99081 -34.9953
lclavicle 2.55003e-015 -5.36719e-015
lhumerus -35.9136 13.3044 80.1479
lradius 20.009
lwrist 6.19086
lhand -16.0762 14.2927
lfingers 7.12502
lthumb 10.1267 44.029
rfemur -7.39136 3.01929 32.2845
rtibia 33.4456
rfoot -21.0215 -12.8114
rtoes 6.80291
lfemur -14.9817 0.648258 -11.7626
ltibia 63.6806
lfoot -8.77077 5.12595
ltoes -15.9424
